name D:\school\WTK\thesis\model\3dpredictsim\Results\batch_windlass\Pog_s1_tmt_aCst_d00_k500_WL30_ig24_act_TTC.mot
datacolumns 128
datarows 4
range 1.72552145 1.76003187
endheader
time	pelvis_tilt	pelvis_list	pelvis_rotation	pelvis_tx	pelvis_ty	pelvis_tz	hip_flexion_l	hip_adduction_l	hip_rotation_l	hip_flexion_r	hip_adduction_r	hip_rotation_r	knee_angle_l	knee_angle_r	ankle_angle_l	ankle_angle_r	subtalar_angle_l	subtalar_angle_r	tmt_angle_l	tmt_angle_r	mtp_angle_l	mtp_angle_r	lumbar_extension	lumbar_bending	lumbar_rotation	arm_flex_l	arm_add_l	arm_rot_l	arm_flex_r	arm_add_r	arm_rot_r	elbow_flex_l	elbow_flex_r	pro_sup_l	pro_sup_r	glut_med1_l/activation	glut_med2_l/activation	glut_med3_l/activation	glut_min1_l/activation	glut_min2_l/activation	glut_min3_l/activation	semimem_l/activation	semiten_l/activation	bifemlh_l/activation	bifemsh_l/activation	sar_l/activation	add_long_l/activation	add_brev_l/activation	add_mag1_l/activation	add_mag2_l/activation	add_mag3_l/activation	tfl_l/activation	pect_l/activation	grac_l/activation	glut_max1_l/activation	glut_max2_l/activation	glut_max3_l/activation	iliacus_l/activation	psoas_l/activation	quad_fem_l/activation	gem_l/activation	peri_l/activation	rect_fem_l/activation	vas_med_l/activation	vas_int_l/activation	vas_lat_l/activation	med_gas_l/activation	lat_gas_l/activation	soleus_l/activation	tib_post_l/activation	flex_dig_l/activation	flex_hal_l/activation	tib_ant_l/activation	per_brev_l/activation	per_long_l/activation	per_tert_l/activation	ext_dig_l/activation	ext_hal_l/activation	ercspn_l/activation	intobl_l/activation	extobl_l/activation	glut_med1_r/activation	glut_med2_r/activation	glut_med3_r/activation	glut_min1_r/activation	glut_min2_r/activation	glut_min3_r/activation	semimem_r/activation	semiten_r/activation	bifemlh_r/activation	bifemsh_r/activation	sar_r/activation	add_long_r/activation	add_brev_r/activation	add_mag1_r/activation	add_mag2_r/activation	add_mag3_r/activation	tfl_r/activation	pect_r/activation	grac_r/activation	glut_max1_r/activation	glut_max2_r/activation	glut_max3_r/activation	iliacus_r/activation	psoas_r/activation	quad_fem_r/activation	gem_r/activation	peri_r/activation	rect_fem_r/activation	vas_med_r/activation	vas_int_r/activation	vas_lat_r/activation	med_gas_r/activation	lat_gas_r/activation	soleus_r/activation	tib_post_r/activation	flex_dig_r/activation	flex_hal_r/activation	tib_ant_r/activation	per_brev_r/activation	per_long_r/activation	per_tert_r/activation	ext_dig_r/activation	ext_hal_r/activation	ercspn_r/activation	intobl_r/activation	extobl_r/activation	
          1.72552145	         -2.92960336	          0.00182690	         -7.81142354	          2.15690181	          0.85745727	          0.00084590	         32.96543734	         -1.28329126	         -2.28398148	        -15.74440218	         -1.63393457	          9.30622675	        -21.76019502	        -16.27415350	         -3.28632400	         -7.68361427	          9.20313122	         18.51007975	         -0.12746143	        -10.17654744	          0.52190279	         34.97575026	          1.49006758	          2.93801848	          2.60549622	        -15.59106794	        -13.72598448	         10.23351235	          3.75956055	        -13.47698420	         15.95045308	         20.52100764	         37.35468701	         86.51662706	         86.51662706	          0.05156504	          0.05297097	          0.05969573	          0.05082401	          0.05095415	          0.05221875	          0.16026278	          0.07134761	          0.19104492	          0.07110133	          0.05826977	          0.05123175	          0.06948702	          0.08452413	          0.09350268	          0.11013790	          0.05112437	          0.05317492	          0.07924288	          0.05943671	          0.06758806	          0.11663450	          0.08130958	          0.08178784	          0.11722675	          0.06184104	          0.05516450	          0.05003905	          0.05005975	          0.05006999	          0.05005920	          0.07109863	          0.07139602	          0.07101429	          0.06824510	          0.05060884	          0.05033961	          0.32936457	          0.16038176	          0.10459172	          0.10416935	          0.42626998	          0.12827321	          0.05003170	          0.14601732	          0.16098739	          0.16365192	          0.07121446	          0.06838028	          0.20030772	          0.13698346	          0.08743428	          0.05203545	          0.05037031	          0.05041474	          0.05039320	          0.09518173	          0.07358856	          0.05028578	          0.05038253	          0.05093543	          0.05110054	          0.17681810	          0.05117742	          0.05059836	          0.05278437	          0.05180820	          0.05110730	          0.41756342	          0.58786150	          0.05030609	          0.05251476	          0.07574896	          0.29829350	          0.08551087	          0.12151142	          0.10331196	          0.14315779	          0.19400398	          0.05001339	          0.13494178	          0.13394011	          0.14487627	          0.15071748	          0.51146501	          0.38923490	          0.46237035	          0.35448670	          0.16080021	          0.05000913	          0.07457359	          0.05010817	
          1.73702492	         -2.92388570	         -0.04506193	         -8.01695767	          2.17519125	          0.85624276	          0.00058681	         32.59774931	         -1.11700203	         -2.08549381	        -15.92001377	         -1.84282861	          9.12025279	        -21.92597917	        -17.33100490	         -3.56740625	        -10.28164382	          8.80967602	         18.96205639	         -0.16538672	        -10.82561311	          0.61760683	         35.91903677	          1.70349636	          2.75919002	          2.67789083	        -16.87395261	        -13.70052964	         10.42356128	          3.48601273	        -13.51059845	         16.29511782	         20.45769549	         38.21690883	         86.51662706	         86.51662706	          0.08785120	          0.05030997	          0.05033749	          0.05954367	          0.05763738	          0.05071681	          0.13449492	          0.05989339	          0.16033123	          0.05968356	          0.05955270	          0.08457261	          0.09758039	          0.07162958	          0.12545527	          0.14714594	          0.05015889	          0.06297590	          0.06659866	          0.05031137	          0.05692141	          0.16521101	          0.06927884	          0.06899628	          0.09844861	          0.05283081	          0.12009612	          0.05035696	          0.15395069	          0.14803079	          0.13831149	          0.05966304	          0.05991550	          0.05959209	          0.11726729	          0.05045817	          0.05510419	          0.49460456	          0.13458803	          0.08776915	          0.40225161	          0.53474392	          0.39145990	          0.05001959	          0.12252978	          0.13509147	          0.13736560	          0.05989332	          0.05774308	          0.16812624	          0.11500209	          0.07384734	          0.05168710	          0.05012491	          0.05011224	          0.05034351	          0.08136674	          0.12560221	          0.12383995	          0.05756789	          0.05199435	          0.05030625	          0.14844456	          0.08872534	          0.06266658	          0.05235044	          0.05157067	          0.05127224	          0.35042032	          0.51290445	          0.05968465	          0.05183917	          0.06400151	          0.25031985	          0.07188465	          0.15305912	          0.08687402	          0.12012796	          0.16279562	          0.05000564	          0.11323637	          0.11241954	          0.12158139	          0.34428582	          0.51117404	          0.36581175	          0.69570056	          0.52415549	          0.13500918	          0.05000648	          0.06607714	          0.08402915	
          1.74852840	         -2.91267927	         -0.06879898	         -8.19233090	          2.19364297	          0.85460022	          0.00031997	         32.16619000	         -0.89138262	         -1.81003865	        -15.93158184	         -2.03515750	          8.92929437	        -22.80496042	        -18.76428527	         -3.64880692	        -12.62172000	          8.36495953	         19.33242588	         -0.16461396	        -11.00423767	          0.67698110	         35.56385314	          1.92195612	          2.54101173	          2.73884401	        -18.11828593	        -13.68741296	         10.69238789	          3.15930701	        -13.56541627	         16.59627330	         20.33515766	         39.07292609	         86.51662706	         86.51662706	          0.22151057	          0.14357961	          0.20192734	          0.05015309	          0.05017709	          0.05110424	          0.11286402	          0.05028487	          0.13454407	          0.05009632	          0.05015168	          0.07102942	          0.08196892	          0.21008693	          0.21848383	          0.16226089	          0.05925011	          0.05355940	          0.05596982	          0.15154867	          0.15035814	          0.18842262	          0.05816185	          0.05796602	          0.17077772	          0.05044884	          0.10088635	          0.05962045	          0.28557373	          0.26403117	          0.23781803	          0.05006653	          0.05028051	          0.05000602	          0.14280413	          0.05075713	          0.05010828	          0.49591022	          0.11294399	          0.07365629	          0.34949276	          0.44879117	          0.32854069	          0.05000919	          0.10281906	          0.11336007	          0.11528621	          0.05039334	          0.05913141	          0.14111867	          0.09654434	          0.06211031	          0.06106598	          0.05047321	          0.05085868	          0.05026673	          0.06913213	          0.22365358	          0.25374597	          0.22327908	          0.06769810	          0.05902632	          0.12459970	          0.07596211	          0.06029897	          0.05196618	          0.05133100	          0.05166841	          0.29406593	          0.44791089	          0.15476026	          0.06210530	          0.05972744	          0.21005626	          0.06039344	          0.12863590	          0.13116849	          0.10080399	          0.13660899	          0.05005512	          0.09502460	          0.09437564	          0.10203800	          0.44312525	          0.49033102	          0.34982810	          0.58385859	          0.57857201	          0.40439160	          0.06752780	          0.05961094	          0.07104825	
          1.76003187	         -2.89825443	         -0.08308415	         -8.32692881	          2.21208941	          0.85273487	          0.00007184	         31.53188819	         -0.63280617	         -1.47977170	        -15.76743346	         -2.19546316	          8.74609210	        -23.98014352	        -20.57599584	         -3.04217052	        -14.57754274	          7.90043839	         19.63104648	         -0.09044955	        -10.58570517	          0.44054110	         33.39688322	          2.13598569	          2.29818556	          2.78466856	        -19.27232313	        -13.68515147	         11.06251729	          2.80201034	        -13.62942623	         16.85622785	         20.11322756	         39.89125367	         86.51662706	         86.51662706	          0.25377936	          0.37014504	          0.54822049	          0.17427541	          0.14312542	          0.38130735	          0.09471361	          0.06715707	          0.11290627	          0.06080328	          0.05951875	          0.05967472	          0.06885884	          0.17637150	          0.18407790	          0.18120031	          0.05007286	          0.05976990	          0.08259123	          0.29414935	          0.24704039	          0.23556405	          0.05951690	          0.05026178	          0.14335960	          0.14397899	          0.27315284	          0.05003758	          0.23970557	          0.24999540	          0.29179240	          0.05002547	          0.05004988	          0.05000745	          0.19527229	          0.05100765	          0.05069687	          0.44284511	          0.09478590	          0.06181623	          0.29329922	          0.38547657	          0.32310060	          0.05021684	          0.08628019	          0.09512505	          0.10805303	          0.05087066	          0.05012138	          0.11847393	          0.08108396	          0.05423656	          0.09087359	          0.05006303	          0.05007323	          0.05005607	          0.05855546	          0.18769556	          0.21303465	          0.18741184	          0.05736926	          0.05040715	          0.10462040	          0.06391577	          0.05080107	          0.05156527	          0.05076861	          0.05033950	          0.24677047	          0.41098794	          0.12988917	          0.05236022	          0.05018906	          0.17626804	          0.08480313	          0.10909334	          0.11016414	          0.08458921	          0.11463530	          0.05001566	          0.07974562	          0.07925612	          0.08564234	          0.37417488	          0.41149478	          0.29359761	          0.51718148	          0.76146972	          0.33938456	          0.10867007	          0.05002795	          0.05963556	
